<svg xmlns="http://www.w3.org/2000/svg" width="86.306" height="30.706" viewBox="0 0 86.306 30.706">
  <path id="Icon_awesome-arrow-right" data-name="Icon awesome-arrow-right" d="M13.395,4.7l1.561-1.561a1.681,1.681,0,0,1,2.384,0L31.008,16.8a1.681,1.681,0,0,1,0,2.384L17.339,32.857a1.681,1.681,0,0,1-2.384,0L13.395,31.3a1.689,1.689,0,0,1,.028-2.412L21.9,20.813l-75.01.063A1.683,1.683,0,0,1-54.8,19.188v-2.25a1.683,1.683,0,0,1,1.688-1.687l75.01-.063L13.423,7.116A1.677,1.677,0,0,1,13.395,4.7Z" transform="translate(54.802 -2.647)" fill="#272727"/>
</svg>
